<?xml version="1.0" encoding="utf-8" standalone="no"?>
<!DOCTYPE svg PUBLIC "-//W3C//DTD SVG 1.1//EN"
  "http://www.w3.org/Graphics/SVG/1.1/DTD/svg11.dtd">
<svg xmlns:xlink="http://www.w3.org/1999/xlink" width="504pt" height="252pt" viewBox="0 0 504 252" xmlns="http://www.w3.org/2000/svg" version="1.1">
 <metadata>
  <rdf:RDF xmlns:dc="http://purl.org/dc/elements/1.1/" xmlns:cc="http://creativecommons.org/ns#" xmlns:rdf="http://www.w3.org/1999/02/22-rdf-syntax-ns#">
   <cc:Work>
    <dc:type rdf:resource="http://purl.org/dc/dcmitype/StillImage"/>
    <dc:date>2023-04-16T16:53:24.001160</dc:date>
    <dc:format>image/svg+xml</dc:format>
    <dc:creator>
     <cc:Agent>
      <dc:title>Matplotlib v3.7.0, https://matplotlib.org/</dc:title>
     </cc:Agent>
    </dc:creator>
   </cc:Work>
  </rdf:RDF>
 </metadata>
 <defs>
  <style type="text/css">*{stroke-linejoin: round; stroke-linecap: butt}</style>
 </defs>
 <g id="figure_1">
  <g id="patch_1">
   <path d="M 0 252 
L 504 252 
L 504 0 
L 0 0 
z
" style="fill: #ffffff"/>
  </g>
  <g id="axes_1">
   <g id="patch_2">
    <path d="M 53.704688 210.84375 
L 445.8375 210.84375 
L 445.8375 25.918125 
L 53.704688 25.918125 
z
" style="fill: #ffffff"/>
   </g>
   <g id="matplotlib.axis_1">
    <g id="xtick_1">
     <g id="line2d_1">
      <path d="M 53.704688 210.84375 
L 53.704688 25.918125 
" clip-path="url(#pe9219e7b01)" style="fill: none; stroke: #b0b0b0; stroke-width: 0.8; stroke-linecap: square"/>
     </g>
     <g id="line2d_2">
      <defs>
       <path id="m15e5497ed8" d="M 0 0 
L 0 3.5 
" style="stroke: #000000; stroke-width: 0.8"/>
      </defs>
      <g>
       <use xlink:href="#m15e5497ed8" x="53.704688" y="210.84375" style="stroke: #000000; stroke-width: 0.8"/>
      </g>
     </g>
     <g id="text_1">
      <!-- 3.5 -->
      <g transform="translate(45.753125 225.442187) scale(0.1 -0.1)">
       <defs>
        <path id="DejaVuSans-33" d="M 2597 2516 
Q 3050 2419 3304 2112 
Q 3559 1806 3559 1356 
Q 3559 666 3084 287 
Q 2609 -91 1734 -91 
Q 1441 -91 1130 -33 
Q 819 25 488 141 
L 488 750 
Q 750 597 1062 519 
Q 1375 441 1716 441 
Q 2309 441 2620 675 
Q 2931 909 2931 1356 
Q 2931 1769 2642 2001 
Q 2353 2234 1838 2234 
L 1294 2234 
L 1294 2753 
L 1863 2753 
Q 2328 2753 2575 2939 
Q 2822 3125 2822 3475 
Q 2822 3834 2567 4026 
Q 2313 4219 1838 4219 
Q 1578 4219 1281 4162 
Q 984 4106 628 3988 
L 628 4550 
Q 988 4650 1302 4700 
Q 1616 4750 1894 4750 
Q 2613 4750 3031 4423 
Q 3450 4097 3450 3541 
Q 3450 3153 3228 2886 
Q 3006 2619 2597 2516 
z
" transform="scale(0.015625)"/>
        <path id="DejaVuSans-2e" d="M 684 794 
L 1344 794 
L 1344 0 
L 684 0 
L 684 794 
z
" transform="scale(0.015625)"/>
        <path id="DejaVuSans-35" d="M 691 4666 
L 3169 4666 
L 3169 4134 
L 1269 4134 
L 1269 2991 
Q 1406 3038 1543 3061 
Q 1681 3084 1819 3084 
Q 2600 3084 3056 2656 
Q 3513 2228 3513 1497 
Q 3513 744 3044 326 
Q 2575 -91 1722 -91 
Q 1428 -91 1123 -41 
Q 819 9 494 109 
L 494 744 
Q 775 591 1075 516 
Q 1375 441 1709 441 
Q 2250 441 2565 725 
Q 2881 1009 2881 1497 
Q 2881 1984 2565 2268 
Q 2250 2553 1709 2553 
Q 1456 2553 1204 2497 
Q 953 2441 691 2322 
L 691 4666 
z
" transform="scale(0.015625)"/>
       </defs>
       <use xlink:href="#DejaVuSans-33"/>
       <use xlink:href="#DejaVuSans-2e" x="63.623047"/>
       <use xlink:href="#DejaVuSans-35" x="95.410156"/>
      </g>
     </g>
    </g>
    <g id="xtick_2">
     <g id="line2d_3">
      <path d="M 132.13125 210.84375 
L 132.13125 25.918125 
" clip-path="url(#pe9219e7b01)" style="fill: none; stroke: #b0b0b0; stroke-width: 0.8; stroke-linecap: square"/>
     </g>
     <g id="line2d_4">
      <g>
       <use xlink:href="#m15e5497ed8" x="132.13125" y="210.84375" style="stroke: #000000; stroke-width: 0.8"/>
      </g>
     </g>
     <g id="text_2">
      <!-- 3.6 -->
      <g transform="translate(124.179688 225.442187) scale(0.1 -0.1)">
       <defs>
        <path id="DejaVuSans-36" d="M 2113 2584 
Q 1688 2584 1439 2293 
Q 1191 2003 1191 1497 
Q 1191 994 1439 701 
Q 1688 409 2113 409 
Q 2538 409 2786 701 
Q 3034 994 3034 1497 
Q 3034 2003 2786 2293 
Q 2538 2584 2113 2584 
z
M 3366 4563 
L 3366 3988 
Q 3128 4100 2886 4159 
Q 2644 4219 2406 4219 
Q 1781 4219 1451 3797 
Q 1122 3375 1075 2522 
Q 1259 2794 1537 2939 
Q 1816 3084 2150 3084 
Q 2853 3084 3261 2657 
Q 3669 2231 3669 1497 
Q 3669 778 3244 343 
Q 2819 -91 2113 -91 
Q 1303 -91 875 529 
Q 447 1150 447 2328 
Q 447 3434 972 4092 
Q 1497 4750 2381 4750 
Q 2619 4750 2861 4703 
Q 3103 4656 3366 4563 
z
" transform="scale(0.015625)"/>
       </defs>
       <use xlink:href="#DejaVuSans-33"/>
       <use xlink:href="#DejaVuSans-2e" x="63.623047"/>
       <use xlink:href="#DejaVuSans-36" x="95.410156"/>
      </g>
     </g>
    </g>
    <g id="xtick_3">
     <g id="line2d_5">
      <path d="M 210.557813 210.84375 
L 210.557813 25.918125 
" clip-path="url(#pe9219e7b01)" style="fill: none; stroke: #b0b0b0; stroke-width: 0.8; stroke-linecap: square"/>
     </g>
     <g id="line2d_6">
      <g>
       <use xlink:href="#m15e5497ed8" x="210.557813" y="210.84375" style="stroke: #000000; stroke-width: 0.8"/>
      </g>
     </g>
     <g id="text_3">
      <!-- 3.7 -->
      <g transform="translate(202.60625 225.442187) scale(0.1 -0.1)">
       <defs>
        <path id="DejaVuSans-37" d="M 525 4666 
L 3525 4666 
L 3525 4397 
L 1831 0 
L 1172 0 
L 2766 4134 
L 525 4134 
L 525 4666 
z
" transform="scale(0.015625)"/>
       </defs>
       <use xlink:href="#DejaVuSans-33"/>
       <use xlink:href="#DejaVuSans-2e" x="63.623047"/>
       <use xlink:href="#DejaVuSans-37" x="95.410156"/>
      </g>
     </g>
    </g>
    <g id="xtick_4">
     <g id="line2d_7">
      <path d="M 288.984375 210.84375 
L 288.984375 25.918125 
" clip-path="url(#pe9219e7b01)" style="fill: none; stroke: #b0b0b0; stroke-width: 0.8; stroke-linecap: square"/>
     </g>
     <g id="line2d_8">
      <g>
       <use xlink:href="#m15e5497ed8" x="288.984375" y="210.84375" style="stroke: #000000; stroke-width: 0.8"/>
      </g>
     </g>
     <g id="text_4">
      <!-- 3.8 -->
      <g transform="translate(281.032813 225.442187) scale(0.1 -0.1)">
       <defs>
        <path id="DejaVuSans-38" d="M 2034 2216 
Q 1584 2216 1326 1975 
Q 1069 1734 1069 1313 
Q 1069 891 1326 650 
Q 1584 409 2034 409 
Q 2484 409 2743 651 
Q 3003 894 3003 1313 
Q 3003 1734 2745 1975 
Q 2488 2216 2034 2216 
z
M 1403 2484 
Q 997 2584 770 2862 
Q 544 3141 544 3541 
Q 544 4100 942 4425 
Q 1341 4750 2034 4750 
Q 2731 4750 3128 4425 
Q 3525 4100 3525 3541 
Q 3525 3141 3298 2862 
Q 3072 2584 2669 2484 
Q 3125 2378 3379 2068 
Q 3634 1759 3634 1313 
Q 3634 634 3220 271 
Q 2806 -91 2034 -91 
Q 1263 -91 848 271 
Q 434 634 434 1313 
Q 434 1759 690 2068 
Q 947 2378 1403 2484 
z
M 1172 3481 
Q 1172 3119 1398 2916 
Q 1625 2713 2034 2713 
Q 2441 2713 2670 2916 
Q 2900 3119 2900 3481 
Q 2900 3844 2670 4047 
Q 2441 4250 2034 4250 
Q 1625 4250 1398 4047 
Q 1172 3844 1172 3481 
z
" transform="scale(0.015625)"/>
       </defs>
       <use xlink:href="#DejaVuSans-33"/>
       <use xlink:href="#DejaVuSans-2e" x="63.623047"/>
       <use xlink:href="#DejaVuSans-38" x="95.410156"/>
      </g>
     </g>
    </g>
    <g id="xtick_5">
     <g id="line2d_9">
      <path d="M 367.410938 210.84375 
L 367.410938 25.918125 
" clip-path="url(#pe9219e7b01)" style="fill: none; stroke: #b0b0b0; stroke-width: 0.8; stroke-linecap: square"/>
     </g>
     <g id="line2d_10">
      <g>
       <use xlink:href="#m15e5497ed8" x="367.410938" y="210.84375" style="stroke: #000000; stroke-width: 0.8"/>
      </g>
     </g>
     <g id="text_5">
      <!-- 3.9 -->
      <g transform="translate(359.459375 225.442187) scale(0.1 -0.1)">
       <defs>
        <path id="DejaVuSans-39" d="M 703 97 
L 703 672 
Q 941 559 1184 500 
Q 1428 441 1663 441 
Q 2288 441 2617 861 
Q 2947 1281 2994 2138 
Q 2813 1869 2534 1725 
Q 2256 1581 1919 1581 
Q 1219 1581 811 2004 
Q 403 2428 403 3163 
Q 403 3881 828 4315 
Q 1253 4750 1959 4750 
Q 2769 4750 3195 4129 
Q 3622 3509 3622 2328 
Q 3622 1225 3098 567 
Q 2575 -91 1691 -91 
Q 1453 -91 1209 -44 
Q 966 3 703 97 
z
M 1959 2075 
Q 2384 2075 2632 2365 
Q 2881 2656 2881 3163 
Q 2881 3666 2632 3958 
Q 2384 4250 1959 4250 
Q 1534 4250 1286 3958 
Q 1038 3666 1038 3163 
Q 1038 2656 1286 2365 
Q 1534 2075 1959 2075 
z
" transform="scale(0.015625)"/>
       </defs>
       <use xlink:href="#DejaVuSans-33"/>
       <use xlink:href="#DejaVuSans-2e" x="63.623047"/>
       <use xlink:href="#DejaVuSans-39" x="95.410156"/>
      </g>
     </g>
    </g>
    <g id="xtick_6">
     <g id="line2d_11">
      <path d="M 445.8375 210.84375 
L 445.8375 25.918125 
" clip-path="url(#pe9219e7b01)" style="fill: none; stroke: #b0b0b0; stroke-width: 0.8; stroke-linecap: square"/>
     </g>
     <g id="line2d_12">
      <g>
       <use xlink:href="#m15e5497ed8" x="445.8375" y="210.84375" style="stroke: #000000; stroke-width: 0.8"/>
      </g>
     </g>
     <g id="text_6">
      <!-- 4.0 -->
      <g transform="translate(437.885938 225.442187) scale(0.1 -0.1)">
       <defs>
        <path id="DejaVuSans-34" d="M 2419 4116 
L 825 1625 
L 2419 1625 
L 2419 4116 
z
M 2253 4666 
L 3047 4666 
L 3047 1625 
L 3713 1625 
L 3713 1100 
L 3047 1100 
L 3047 0 
L 2419 0 
L 2419 1100 
L 313 1100 
L 313 1709 
L 2253 4666 
z
" transform="scale(0.015625)"/>
        <path id="DejaVuSans-30" d="M 2034 4250 
Q 1547 4250 1301 3770 
Q 1056 3291 1056 2328 
Q 1056 1369 1301 889 
Q 1547 409 2034 409 
Q 2525 409 2770 889 
Q 3016 1369 3016 2328 
Q 3016 3291 2770 3770 
Q 2525 4250 2034 4250 
z
M 2034 4750 
Q 2819 4750 3233 4129 
Q 3647 3509 3647 2328 
Q 3647 1150 3233 529 
Q 2819 -91 2034 -91 
Q 1250 -91 836 529 
Q 422 1150 422 2328 
Q 422 3509 836 4129 
Q 1250 4750 2034 4750 
z
" transform="scale(0.015625)"/>
       </defs>
       <use xlink:href="#DejaVuSans-34"/>
       <use xlink:href="#DejaVuSans-2e" x="63.623047"/>
       <use xlink:href="#DejaVuSans-30" x="95.410156"/>
      </g>
     </g>
    </g>
    <g id="text_7">
     <!-- r -->
     <g transform="translate(247.715625 239.120312) scale(0.1 -0.1)">
      <defs>
       <path id="DejaVuSans-72" d="M 2631 2963 
Q 2534 3019 2420 3045 
Q 2306 3072 2169 3072 
Q 1681 3072 1420 2755 
Q 1159 2438 1159 1844 
L 1159 0 
L 581 0 
L 581 3500 
L 1159 3500 
L 1159 2956 
Q 1341 3275 1631 3429 
Q 1922 3584 2338 3584 
Q 2397 3584 2469 3576 
Q 2541 3569 2628 3553 
L 2631 2963 
z
" transform="scale(0.015625)"/>
      </defs>
      <use xlink:href="#DejaVuSans-72"/>
     </g>
    </g>
   </g>
   <g id="matplotlib.axis_2">
    <g id="ytick_1">
     <g id="line2d_13">
      <path d="M 53.704688 210.84375 
L 445.8375 210.84375 
" clip-path="url(#pe9219e7b01)" style="fill: none; stroke: #b0b0b0; stroke-width: 0.8; stroke-linecap: square"/>
     </g>
     <g id="line2d_14">
      <defs>
       <path id="m2cd5ef2165" d="M 0 0 
L -3.5 0 
" style="stroke: #000000; stroke-width: 0.8"/>
      </defs>
      <g>
       <use xlink:href="#m2cd5ef2165" x="53.704688" y="210.84375" style="stroke: #000000; stroke-width: 0.8"/>
      </g>
     </g>
     <g id="text_8">
      <!-- 0% -->
      <g transform="translate(30.840625 214.642969) scale(0.1 -0.1)">
       <defs>
        <path id="DejaVuSans-25" d="M 4653 2053 
Q 4381 2053 4226 1822 
Q 4072 1591 4072 1178 
Q 4072 772 4226 539 
Q 4381 306 4653 306 
Q 4919 306 5073 539 
Q 5228 772 5228 1178 
Q 5228 1588 5073 1820 
Q 4919 2053 4653 2053 
z
M 4653 2450 
Q 5147 2450 5437 2106 
Q 5728 1763 5728 1178 
Q 5728 594 5436 251 
Q 5144 -91 4653 -91 
Q 4153 -91 3862 251 
Q 3572 594 3572 1178 
Q 3572 1766 3864 2108 
Q 4156 2450 4653 2450 
z
M 1428 4353 
Q 1159 4353 1004 4120 
Q 850 3888 850 3481 
Q 850 3069 1003 2837 
Q 1156 2606 1428 2606 
Q 1700 2606 1854 2837 
Q 2009 3069 2009 3481 
Q 2009 3884 1853 4118 
Q 1697 4353 1428 4353 
z
M 4250 4750 
L 4750 4750 
L 1831 -91 
L 1331 -91 
L 4250 4750 
z
M 1428 4750 
Q 1922 4750 2215 4408 
Q 2509 4066 2509 3481 
Q 2509 2891 2217 2550 
Q 1925 2209 1428 2209 
Q 931 2209 642 2551 
Q 353 2894 353 3481 
Q 353 4063 643 4406 
Q 934 4750 1428 4750 
z
" transform="scale(0.015625)"/>
       </defs>
       <use xlink:href="#DejaVuSans-30"/>
       <use xlink:href="#DejaVuSans-25" x="63.623047"/>
      </g>
     </g>
    </g>
    <g id="ytick_2">
     <g id="line2d_15">
      <path d="M 53.704688 173.858625 
L 445.8375 173.858625 
" clip-path="url(#pe9219e7b01)" style="fill: none; stroke: #b0b0b0; stroke-width: 0.8; stroke-linecap: square"/>
     </g>
     <g id="line2d_16">
      <g>
       <use xlink:href="#m2cd5ef2165" x="53.704688" y="173.858625" style="stroke: #000000; stroke-width: 0.8"/>
      </g>
     </g>
     <g id="text_9">
      <!-- 10% -->
      <g transform="translate(24.478125 177.657844) scale(0.1 -0.1)">
       <defs>
        <path id="DejaVuSans-31" d="M 794 531 
L 1825 531 
L 1825 4091 
L 703 3866 
L 703 4441 
L 1819 4666 
L 2450 4666 
L 2450 531 
L 3481 531 
L 3481 0 
L 794 0 
L 794 531 
z
" transform="scale(0.015625)"/>
       </defs>
       <use xlink:href="#DejaVuSans-31"/>
       <use xlink:href="#DejaVuSans-30" x="63.623047"/>
       <use xlink:href="#DejaVuSans-25" x="127.246094"/>
      </g>
     </g>
    </g>
    <g id="ytick_3">
     <g id="line2d_17">
      <path d="M 53.704688 136.8735 
L 445.8375 136.8735 
" clip-path="url(#pe9219e7b01)" style="fill: none; stroke: #b0b0b0; stroke-width: 0.8; stroke-linecap: square"/>
     </g>
     <g id="line2d_18">
      <g>
       <use xlink:href="#m2cd5ef2165" x="53.704688" y="136.8735" style="stroke: #000000; stroke-width: 0.8"/>
      </g>
     </g>
     <g id="text_10">
      <!-- 20% -->
      <g transform="translate(24.478125 140.672719) scale(0.1 -0.1)">
       <defs>
        <path id="DejaVuSans-32" d="M 1228 531 
L 3431 531 
L 3431 0 
L 469 0 
L 469 531 
Q 828 903 1448 1529 
Q 2069 2156 2228 2338 
Q 2531 2678 2651 2914 
Q 2772 3150 2772 3378 
Q 2772 3750 2511 3984 
Q 2250 4219 1831 4219 
Q 1534 4219 1204 4116 
Q 875 4013 500 3803 
L 500 4441 
Q 881 4594 1212 4672 
Q 1544 4750 1819 4750 
Q 2544 4750 2975 4387 
Q 3406 4025 3406 3419 
Q 3406 3131 3298 2873 
Q 3191 2616 2906 2266 
Q 2828 2175 2409 1742 
Q 1991 1309 1228 531 
z
" transform="scale(0.015625)"/>
       </defs>
       <use xlink:href="#DejaVuSans-32"/>
       <use xlink:href="#DejaVuSans-30" x="63.623047"/>
       <use xlink:href="#DejaVuSans-25" x="127.246094"/>
      </g>
     </g>
    </g>
    <g id="ytick_4">
     <g id="line2d_19">
      <path d="M 53.704688 99.888375 
L 445.8375 99.888375 
" clip-path="url(#pe9219e7b01)" style="fill: none; stroke: #b0b0b0; stroke-width: 0.8; stroke-linecap: square"/>
     </g>
     <g id="line2d_20">
      <g>
       <use xlink:href="#m2cd5ef2165" x="53.704688" y="99.888375" style="stroke: #000000; stroke-width: 0.8"/>
      </g>
     </g>
     <g id="text_11">
      <!-- 30% -->
      <g transform="translate(24.478125 103.687594) scale(0.1 -0.1)">
       <use xlink:href="#DejaVuSans-33"/>
       <use xlink:href="#DejaVuSans-30" x="63.623047"/>
       <use xlink:href="#DejaVuSans-25" x="127.246094"/>
      </g>
     </g>
    </g>
    <g id="ytick_5">
     <g id="line2d_21">
      <path d="M 53.704688 62.90325 
L 445.8375 62.90325 
" clip-path="url(#pe9219e7b01)" style="fill: none; stroke: #b0b0b0; stroke-width: 0.8; stroke-linecap: square"/>
     </g>
     <g id="line2d_22">
      <g>
       <use xlink:href="#m2cd5ef2165" x="53.704688" y="62.90325" style="stroke: #000000; stroke-width: 0.8"/>
      </g>
     </g>
     <g id="text_12">
      <!-- 40% -->
      <g transform="translate(24.478125 66.702469) scale(0.1 -0.1)">
       <use xlink:href="#DejaVuSans-34"/>
       <use xlink:href="#DejaVuSans-30" x="63.623047"/>
       <use xlink:href="#DejaVuSans-25" x="127.246094"/>
      </g>
     </g>
    </g>
    <g id="ytick_6">
     <g id="line2d_23">
      <path d="M 53.704688 25.918125 
L 445.8375 25.918125 
" clip-path="url(#pe9219e7b01)" style="fill: none; stroke: #b0b0b0; stroke-width: 0.8; stroke-linecap: square"/>
     </g>
     <g id="line2d_24">
      <g>
       <use xlink:href="#m2cd5ef2165" x="53.704688" y="25.918125" style="stroke: #000000; stroke-width: 0.8"/>
      </g>
     </g>
     <g id="text_13">
      <!-- 50% -->
      <g transform="translate(24.478125 29.717344) scale(0.1 -0.1)">
       <use xlink:href="#DejaVuSans-35"/>
       <use xlink:href="#DejaVuSans-30" x="63.623047"/>
       <use xlink:href="#DejaVuSans-25" x="127.246094"/>
      </g>
     </g>
    </g>
    <g id="text_14">
     <!-- ordinal probability -->
     <g transform="translate(18.398438 163.858281) rotate(-90) scale(0.1 -0.1)">
      <defs>
       <path id="DejaVuSans-6f" d="M 1959 3097 
Q 1497 3097 1228 2736 
Q 959 2375 959 1747 
Q 959 1119 1226 758 
Q 1494 397 1959 397 
Q 2419 397 2687 759 
Q 2956 1122 2956 1747 
Q 2956 2369 2687 2733 
Q 2419 3097 1959 3097 
z
M 1959 3584 
Q 2709 3584 3137 3096 
Q 3566 2609 3566 1747 
Q 3566 888 3137 398 
Q 2709 -91 1959 -91 
Q 1206 -91 779 398 
Q 353 888 353 1747 
Q 353 2609 779 3096 
Q 1206 3584 1959 3584 
z
" transform="scale(0.015625)"/>
       <path id="DejaVuSans-64" d="M 2906 2969 
L 2906 4863 
L 3481 4863 
L 3481 0 
L 2906 0 
L 2906 525 
Q 2725 213 2448 61 
Q 2172 -91 1784 -91 
Q 1150 -91 751 415 
Q 353 922 353 1747 
Q 353 2572 751 3078 
Q 1150 3584 1784 3584 
Q 2172 3584 2448 3432 
Q 2725 3281 2906 2969 
z
M 947 1747 
Q 947 1113 1208 752 
Q 1469 391 1925 391 
Q 2381 391 2643 752 
Q 2906 1113 2906 1747 
Q 2906 2381 2643 2742 
Q 2381 3103 1925 3103 
Q 1469 3103 1208 2742 
Q 947 2381 947 1747 
z
" transform="scale(0.015625)"/>
       <path id="DejaVuSans-69" d="M 603 3500 
L 1178 3500 
L 1178 0 
L 603 0 
L 603 3500 
z
M 603 4863 
L 1178 4863 
L 1178 4134 
L 603 4134 
L 603 4863 
z
" transform="scale(0.015625)"/>
       <path id="DejaVuSans-6e" d="M 3513 2113 
L 3513 0 
L 2938 0 
L 2938 2094 
Q 2938 2591 2744 2837 
Q 2550 3084 2163 3084 
Q 1697 3084 1428 2787 
Q 1159 2491 1159 1978 
L 1159 0 
L 581 0 
L 581 3500 
L 1159 3500 
L 1159 2956 
Q 1366 3272 1645 3428 
Q 1925 3584 2291 3584 
Q 2894 3584 3203 3211 
Q 3513 2838 3513 2113 
z
" transform="scale(0.015625)"/>
       <path id="DejaVuSans-61" d="M 2194 1759 
Q 1497 1759 1228 1600 
Q 959 1441 959 1056 
Q 959 750 1161 570 
Q 1363 391 1709 391 
Q 2188 391 2477 730 
Q 2766 1069 2766 1631 
L 2766 1759 
L 2194 1759 
z
M 3341 1997 
L 3341 0 
L 2766 0 
L 2766 531 
Q 2569 213 2275 61 
Q 1981 -91 1556 -91 
Q 1019 -91 701 211 
Q 384 513 384 1019 
Q 384 1609 779 1909 
Q 1175 2209 1959 2209 
L 2766 2209 
L 2766 2266 
Q 2766 2663 2505 2880 
Q 2244 3097 1772 3097 
Q 1472 3097 1187 3025 
Q 903 2953 641 2809 
L 641 3341 
Q 956 3463 1253 3523 
Q 1550 3584 1831 3584 
Q 2591 3584 2966 3190 
Q 3341 2797 3341 1997 
z
" transform="scale(0.015625)"/>
       <path id="DejaVuSans-6c" d="M 603 4863 
L 1178 4863 
L 1178 0 
L 603 0 
L 603 4863 
z
" transform="scale(0.015625)"/>
       <path id="DejaVuSans-20" transform="scale(0.015625)"/>
       <path id="DejaVuSans-70" d="M 1159 525 
L 1159 -1331 
L 581 -1331 
L 581 3500 
L 1159 3500 
L 1159 2969 
Q 1341 3281 1617 3432 
Q 1894 3584 2278 3584 
Q 2916 3584 3314 3078 
Q 3713 2572 3713 1747 
Q 3713 922 3314 415 
Q 2916 -91 2278 -91 
Q 1894 -91 1617 61 
Q 1341 213 1159 525 
z
M 3116 1747 
Q 3116 2381 2855 2742 
Q 2594 3103 2138 3103 
Q 1681 3103 1420 2742 
Q 1159 2381 1159 1747 
Q 1159 1113 1420 752 
Q 1681 391 2138 391 
Q 2594 391 2855 752 
Q 3116 1113 3116 1747 
z
" transform="scale(0.015625)"/>
       <path id="DejaVuSans-62" d="M 3116 1747 
Q 3116 2381 2855 2742 
Q 2594 3103 2138 3103 
Q 1681 3103 1420 2742 
Q 1159 2381 1159 1747 
Q 1159 1113 1420 752 
Q 1681 391 2138 391 
Q 2594 391 2855 752 
Q 3116 1113 3116 1747 
z
M 1159 2969 
Q 1341 3281 1617 3432 
Q 1894 3584 2278 3584 
Q 2916 3584 3314 3078 
Q 3713 2572 3713 1747 
Q 3713 922 3314 415 
Q 2916 -91 2278 -91 
Q 1894 -91 1617 61 
Q 1341 213 1159 525 
L 1159 0 
L 581 0 
L 581 4863 
L 1159 4863 
L 1159 2969 
z
" transform="scale(0.015625)"/>
       <path id="DejaVuSans-74" d="M 1172 4494 
L 1172 3500 
L 2356 3500 
L 2356 3053 
L 1172 3053 
L 1172 1153 
Q 1172 725 1289 603 
Q 1406 481 1766 481 
L 2356 481 
L 2356 0 
L 1766 0 
Q 1100 0 847 248 
Q 594 497 594 1153 
L 594 3053 
L 172 3053 
L 172 3500 
L 594 3500 
L 594 4494 
L 1172 4494 
z
" transform="scale(0.015625)"/>
       <path id="DejaVuSans-79" d="M 2059 -325 
Q 1816 -950 1584 -1140 
Q 1353 -1331 966 -1331 
L 506 -1331 
L 506 -850 
L 844 -850 
Q 1081 -850 1212 -737 
Q 1344 -625 1503 -206 
L 1606 56 
L 191 3500 
L 800 3500 
L 1894 763 
L 2988 3500 
L 3597 3500 
L 2059 -325 
z
" transform="scale(0.015625)"/>
      </defs>
      <use xlink:href="#DejaVuSans-6f"/>
      <use xlink:href="#DejaVuSans-72" x="61.181641"/>
      <use xlink:href="#DejaVuSans-64" x="100.544922"/>
      <use xlink:href="#DejaVuSans-69" x="164.021484"/>
      <use xlink:href="#DejaVuSans-6e" x="191.804688"/>
      <use xlink:href="#DejaVuSans-61" x="255.183594"/>
      <use xlink:href="#DejaVuSans-6c" x="316.462891"/>
      <use xlink:href="#DejaVuSans-20" x="344.246094"/>
      <use xlink:href="#DejaVuSans-70" x="376.033203"/>
      <use xlink:href="#DejaVuSans-72" x="439.509766"/>
      <use xlink:href="#DejaVuSans-6f" x="478.373047"/>
      <use xlink:href="#DejaVuSans-62" x="539.554688"/>
      <use xlink:href="#DejaVuSans-61" x="603.03125"/>
      <use xlink:href="#DejaVuSans-62" x="664.310547"/>
      <use xlink:href="#DejaVuSans-69" x="727.787109"/>
      <use xlink:href="#DejaVuSans-6c" x="755.570312"/>
      <use xlink:href="#DejaVuSans-69" x="783.353516"/>
      <use xlink:href="#DejaVuSans-74" x="811.136719"/>
      <use xlink:href="#DejaVuSans-79" x="850.345703"/>
     </g>
    </g>
   </g>
   <g id="line2d_25">
    <path d="M 53.704688 210.84375 
L 192.911836 210.84375 
L 194.8725 206.092302 
L 196.833164 203.118113 
L 198.793828 201.957454 
L 200.754492 195.102312 
L 202.715156 198.330395 
L 204.67582 198.185313 
L 206.636484 195.827724 
L 208.597148 196.009077 
L 210.557813 191.366441 
L 212.518477 157.997494 
L 214.479141 186.034664 
L 216.439805 189.045123 
L 218.400469 189.843076 
L 220.361133 190.931194 
L 222.321797 189.843076 
L 224.282461 184.475028 
L 226.243125 187.775652 
L 228.203789 188.90004 
L 230.164453 187.412946 
L 232.125117 187.231593 
L 234.085781 181.101863 
L 236.046445 179.143251 
L 238.007109 177.619886 
L 239.967773 172.904708 
L 241.928438 136.851738 
L 243.889102 136.851738 
L 245.849766 155.8938 
L 247.81043 165.360425 
L 249.771094 169.060025 
L 251.731758 167.899366 
L 253.692422 175.806356 
L 255.653086 175.733815 
L 257.61375 174.573156 
L 259.574414 172.578273 
L 261.535078 177.112097 
L 263.495742 176.459227 
L 265.456406 175.371109 
L 267.41707 172.940979 
L 269.377734 167.028872 
L 271.338398 168.697319 
L 273.299063 173.267414 
L 275.259727 175.044673 
L 277.220391 174.174179 
L 279.181055 173.557579 
L 281.141719 174.790779 
L 283.102383 173.303685 
L 285.063047 168.552237 
L 287.023711 168.769861 
L 288.984375 162.64013 
L 290.945039 159.956106 
L 292.905703 160.862871 
L 294.866367 162.132342 
L 296.827031 161.40693 
L 298.787695 161.950989 
L 300.748359 157.127 
L 302.709023 153.137234 
L 304.669687 155.240929 
L 306.630352 146.75361 
L 308.591016 145.266516 
L 310.55168 135.654808 
L 312.512344 87.56 
L 332.118984 87.56 
L 336.040312 124.701089 
L 339.961641 127.131218 
L 341.922305 133.986361 
L 343.882969 128.146795 
L 345.843633 126.877324 
L 349.764961 140.623879 
L 351.725625 140.732691 
L 353.686289 148.458328 
L 355.646953 143.235362 
L 357.607617 140.515068 
L 359.568281 147.841728 
L 361.528945 149.328822 
L 363.489609 149.764069 
L 365.450273 147.479022 
L 367.410937 143.598068 
L 369.371602 143.851962 
L 371.332266 142.800115 
L 373.29293 142.908927 
L 375.253594 143.307903 
L 377.214258 137.794773 
L 379.174922 138.411373 
L 381.135586 144.831268 
L 383.09625 147.587834 
L 385.056914 146.245822 
L 387.017578 148.639681 
L 388.978242 150.634563 
L 390.938906 147.406481 
L 392.89957 143.960774 
L 394.860234 138.592726 
L 396.820898 132.209102 
L 398.781562 131.48369 
L 400.742227 135.545996 
L 402.702891 134.856855 
L 404.663555 135.618537 
L 408.584883 123.177724 
L 410.545547 121.871982 
L 412.506211 124.084488 
L 414.466875 106.275627 
L 416.427539 107.146121 
L 418.388203 107.871533 
L 420.348867 112.115192 
L 422.309531 109.612521 
L 424.270195 114.835487 
L 426.230859 117.084264 
L 428.191523 113.239581 
L 430.152187 113.529746 
L 432.112852 121.074029 
L 434.073516 110.301663 
L 436.03418 111.172157 
L 437.994844 101.59672 
L 439.955508 98.078472 
L 441.916172 99.855731 
L 443.876836 94.27006 
L 445.8375 85.238682 
L 445.8375 85.238682 
" clip-path="url(#pe9219e7b01)" style="fill: none; stroke: #1f77b4; stroke-width: 1.5; stroke-linecap: square"/>
   </g>
   <g id="line2d_26">
    <path d="M 53.704688 118.390005 
L 126.249258 118.390005 
L 128.209922 121.473006 
L 130.170586 125.4265 
L 132.13125 123.5767 
L 134.091914 124.410924 
L 136.052578 127.675277 
L 138.013242 129.08983 
L 139.973906 126.587159 
L 141.93457 127.167489 
L 143.895234 128.037983 
L 145.855898 127.276301 
L 147.816563 131.628772 
L 149.777227 130.975901 
L 151.737891 134.820584 
L 153.698555 149.22001 
L 157.619883 149.22001 
L 159.580547 145.339057 
L 161.541211 138.701538 
L 163.501875 137.323255 
L 165.462539 136.924279 
L 167.423203 136.38022 
L 169.383867 136.126326 
L 171.344531 135.618537 
L 173.305195 134.457878 
L 175.265859 137.649691 
L 177.226523 137.214444 
L 179.187188 140.914044 
L 181.147852 164.598742 
L 183.108516 146.535986 
L 185.06918 143.815692 
L 187.029844 143.017739 
L 188.990508 147.877998 
L 190.951172 148.422057 
L 192.911836 151.758952 
L 194.8725 162.857754 
L 196.833164 164.961448 
L 198.793828 161.40693 
L 200.754492 173.485038 
L 202.715156 166.230919 
L 204.67582 163.764519 
L 206.636484 165.360425 
L 208.597148 165.432966 
L 210.557813 171.852861 
L 212.518477 210.84375 
L 214.479141 178.780545 
L 216.439805 174.681967 
L 218.400469 172.433191 
L 220.361133 168.008178 
L 222.321797 167.609202 
L 224.282461 168.914943 
L 226.243125 167.681743 
L 228.203789 165.578048 
L 230.164453 167.319037 
L 232.125117 171.562696 
L 234.085781 177.87378 
L 236.046445 176.604309 
L 238.007109 180.521533 
L 239.967773 182.008628 
L 241.928438 210.84375 
L 243.889102 210.84375 
L 245.849766 194.739606 
L 247.81043 189.299017 
L 249.771094 185.381793 
L 251.731758 189.153935 
L 253.692422 180.448992 
L 255.653086 178.562921 
L 257.61375 179.070709 
L 259.574414 178.236486 
L 261.535078 171.852861 
L 263.495742 169.894249 
L 265.456406 172.215567 
L 267.41707 173.339956 
L 269.377734 168.515966 
L 271.338398 171.236261 
L 273.299063 170.655932 
L 275.259727 166.956331 
L 277.220391 168.661049 
L 279.181055 171.091179 
L 281.141719 171.816591 
L 285.063047 178.200215 
L 287.023711 177.547344 
L 288.984375 181.57338 
L 290.945039 181.464569 
L 292.905703 182.189981 
L 294.866367 179.034439 
L 296.827031 177.837509 
L 298.787695 177.764968 
L 300.748359 181.936086 
L 302.709023 184.511299 
L 304.669687 182.552686 
L 306.630352 184.511299 
L 308.591016 187.485487 
L 310.55168 190.71357 
L 312.512344 210.84375 
L 332.118984 210.84375 
L 334.079648 201.957454 
L 336.040312 193.796571 
L 338.000977 197.38736 
L 339.961641 191.511523 
L 341.922305 188.609876 
L 343.882969 194.195547 
L 345.843633 196.335512 
L 347.804297 195.138583 
L 349.764961 192.672182 
L 351.725625 189.951888 
L 353.686289 183.604534 
L 355.646953 184.00351 
L 357.607617 182.552686 
L 359.568281 180.267639 
L 361.528945 173.485038 
L 363.489609 176.023979 
L 365.450273 175.661274 
L 367.410937 175.080944 
L 369.371602 175.334838 
L 371.332266 170.873555 
L 373.29293 163.655707 
L 375.253594 168.588508 
L 377.214258 170.111873 
L 379.174922 171.925402 
L 381.135586 169.422731 
L 383.09625 168.262072 
L 385.056914 168.552237 
L 387.017578 169.31392 
L 388.978242 171.018637 
L 390.938906 175.770085 
L 392.89957 176.568038 
L 394.860234 179.68731 
L 396.820898 183.785887 
L 398.781562 184.366216 
L 400.742227 182.298792 
L 402.702891 178.562921 
L 404.663555 179.433415 
L 406.624219 182.262522 
L 408.584883 184.656381 
L 410.545547 183.749616 
L 412.506211 183.713345 
L 414.466875 188.537335 
L 416.427539 187.739381 
L 418.388203 189.153935 
L 420.348867 185.599416 
L 422.309531 187.993276 
L 424.270195 187.231593 
L 426.230859 181.863545 
L 430.152187 179.904933 
L 432.112852 178.599192 
L 434.073516 184.910275 
L 436.03418 183.38691 
L 437.994844 187.05024 
L 439.955508 186.43364 
L 441.916172 183.205557 
L 443.876836 185.635687 
L 445.8375 187.159052 
L 445.8375 187.159052 
" clip-path="url(#pe9219e7b01)" style="fill: none; stroke: #ff7f0e; stroke-width: 1.5; stroke-linecap: square"/>
   </g>
   <g id="line2d_27">
    <path d="M 53.704688 118.353735 
L 126.249258 118.353735 
L 128.209922 115.270734 
L 130.170586 111.317239 
L 132.13125 113.20331 
L 134.091914 112.369086 
L 136.052578 109.104733 
L 138.013242 107.69018 
L 139.973906 110.192851 
L 141.93457 109.576251 
L 143.895234 108.705756 
L 145.855898 109.50371 
L 147.816563 105.114968 
L 149.777227 105.767838 
L 151.737891 101.923155 
L 153.698555 87.523729 
L 157.619883 87.523729 
L 159.580547 91.440954 
L 161.541211 98.042202 
L 163.501875 99.420484 
L 171.344531 101.161473 
L 173.305195 102.285861 
L 175.265859 99.094049 
L 177.226523 99.565567 
L 179.187188 95.829695 
L 181.147852 72.144997 
L 183.108516 90.244024 
L 185.06918 92.928048 
L 187.029844 93.726001 
L 188.990508 88.865741 
L 190.951172 88.357953 
L 192.911836 84.984788 
L 194.8725 81.031293 
L 196.833164 83.388882 
L 198.793828 88.684388 
L 200.754492 86.907129 
L 202.715156 89.300989 
L 204.67582 92.021283 
L 206.636484 93.907354 
L 208.597148 93.580919 
L 210.557813 94.161248 
L 212.518477 105.187509 
L 214.479141 95.213095 
L 216.439805 94.777848 
L 218.400469 95.865966 
L 220.361133 98.622531 
L 222.321797 100.653685 
L 224.282461 107.400015 
L 226.243125 103.664144 
L 230.164453 104.607179 
L 232.125117 100.617414 
L 234.085781 103.519061 
L 236.046445 107.72645 
L 238.007109 106.058003 
L 239.967773 111.679945 
L 241.928438 136.888008 
L 243.889102 136.888008 
L 245.849766 124.447194 
L 247.81043 115.669711 
L 249.771094 114.037534 
L 251.731758 112.006381 
L 253.692422 108.887109 
L 255.653086 110.881992 
L 257.61375 112.115192 
L 259.574414 115.887334 
L 261.535078 115.488358 
L 263.495742 118.462546 
L 265.456406 117.773405 
L 267.41707 120.276076 
L 269.377734 133.95009 
L 271.338398 128.763395 
L 273.299063 122.488582 
L 275.259727 123.504159 
L 277.220391 123.105182 
L 279.181055 121.618088 
L 281.141719 119.042876 
L 283.102383 118.027299 
L 285.063047 121.980794 
L 287.023711 122.3435 
L 288.984375 127.493924 
L 290.945039 131.628772 
L 292.905703 129.561348 
L 294.866367 130.794548 
L 296.827031 133.079596 
L 298.787695 132.354184 
L 300.748359 135.400914 
L 302.709023 138.81035 
L 304.669687 137.61342 
L 306.630352 148.349516 
L 308.591016 147.660375 
L 310.55168 158.831718 
L 312.512344 210.84375 
L 332.118984 210.84375 
L 336.040312 172.215567 
L 338.000977 166.738707 
L 339.961641 170.837284 
L 341.922305 163.474354 
L 343.882969 166.629896 
L 345.843633 166.376001 
L 347.804297 157.308353 
L 349.764961 149.401363 
L 351.725625 151.940305 
L 353.686289 146.75361 
L 355.646953 154.152811 
L 357.607617 159.738483 
L 359.568281 150.997269 
L 361.528945 149.80034 
L 363.489609 144.794998 
L 365.450273 146.826151 
L 367.410937 148.639681 
L 369.371602 149.437634 
L 371.332266 147.660375 
L 373.29293 145.085163 
L 375.253594 146.064469 
L 377.214258 150.852187 
L 379.174922 150.271858 
L 381.135586 145.55668 
L 383.09625 141.603185 
L 385.056914 139.934738 
L 387.017578 137.794773 
L 388.978242 132.861972 
L 390.938906 133.514843 
L 392.89957 135.79989 
L 394.860234 140.442526 
L 396.820898 140.224903 
L 398.781562 143.162821 
L 400.742227 139.971009 
L 402.702891 144.94008 
L 404.663555 143.199092 
L 406.624219 150.852187 
L 408.584883 154.442976 
L 410.545547 154.261623 
L 412.506211 151.577599 
L 414.466875 161.552012 
L 416.427539 160.500165 
L 418.388203 158.904259 
L 420.348867 160.17373 
L 422.309531 162.059801 
L 424.270195 158.251388 
L 426.230859 157.090729 
L 428.191523 157.380894 
L 430.152187 156.655482 
L 432.112852 146.427175 
L 434.073516 153.028423 
L 436.03418 153.572482 
L 437.994844 160.572706 
L 439.955508 162.204883 
L 441.916172 159.665941 
L 443.876836 160.500165 
L 445.8375 163.293001 
L 445.8375 163.293001 
" clip-path="url(#pe9219e7b01)" style="fill: none; stroke: #2ca02c; stroke-width: 1.5; stroke-linecap: square"/>
   </g>
   <g id="line2d_28">
    <path d="M 53.704688 118.390005 
L 126.249258 118.390005 
L 128.209922 115.307005 
L 130.170586 111.35351 
L 132.13125 113.20331 
L 134.091914 112.369086 
L 136.052578 109.104733 
L 138.013242 107.69018 
L 139.973906 110.192851 
L 141.93457 109.612521 
L 143.895234 108.742027 
L 145.855898 109.50371 
L 147.816563 105.151238 
L 149.777227 105.804109 
L 151.737891 101.959426 
L 153.698555 87.56 
L 157.619883 87.56 
L 159.580547 91.440954 
L 161.541211 98.078472 
L 163.501875 99.456755 
L 165.462539 99.855731 
L 167.423203 100.39979 
L 169.383867 100.653685 
L 171.344531 101.161473 
L 173.305195 102.322132 
L 175.265859 99.13032 
L 177.226523 99.565567 
L 179.187188 95.865966 
L 181.147852 72.181268 
L 183.108516 90.244024 
L 185.06918 92.964319 
L 187.029844 93.762272 
L 188.990508 88.902012 
L 190.951172 88.357953 
L 192.911836 85.021058 
L 194.8725 76.279845 
L 196.833164 75.663245 
L 198.793828 79.798093 
L 200.754492 71.165691 
L 202.715156 76.787633 
L 204.67582 79.326575 
L 206.636484 78.927599 
L 208.597148 78.746246 
L 210.557813 74.647668 
L 212.518477 52.341253 
L 214.479141 70.404009 
L 216.439805 72.979221 
L 218.400469 74.829021 
L 220.361133 78.709975 
L 222.321797 79.65301 
L 224.282461 81.031293 
L 226.243125 80.632316 
L 228.203789 82.155681 
L 230.164453 81.176375 
L 232.125117 77.005257 
L 234.085781 73.777174 
L 236.046445 75.98968 
L 238.007109 72.870409 
L 239.967773 73.740904 
L 241.928438 62.895996 
L 243.889102 62.895996 
L 245.849766 69.497244 
L 247.81043 70.186385 
L 249.771094 72.253809 
L 251.731758 69.098268 
L 253.692422 73.849715 
L 255.653086 75.735786 
L 257.61375 75.808327 
L 259.574414 77.658128 
L 261.535078 81.792976 
L 263.495742 84.078023 
L 265.456406 82.264493 
L 267.41707 82.373305 
L 269.377734 90.171483 
L 271.338398 86.580694 
L 273.299063 84.912247 
L 275.259727 87.705082 
L 277.220391 86.435612 
L 279.181055 84.295647 
L 281.141719 82.989905 
L 283.102383 80.523505 
L 285.063047 79.725552 
L 287.023711 80.23334 
L 288.984375 79.290305 
L 290.945039 80.741128 
L 292.905703 79.580469 
L 294.866367 82.08314 
L 296.827031 83.642776 
L 298.787695 83.461423 
L 300.748359 81.684164 
L 302.709023 81.103834 
L 304.669687 82.010599 
L 306.630352 84.295647 
L 308.591016 82.04687 
L 310.55168 83.642776 
L 312.512344 87.56 
L 332.118984 87.56 
L 334.079648 87.052212 
L 336.040312 86.036635 
L 338.000977 81.829246 
L 339.961641 87.124753 
L 341.922305 86.580694 
L 343.882969 83.89667 
L 345.843633 82.409576 
L 347.804297 80.197069 
L 349.764961 79.181493 
L 351.725625 81.865517 
L 353.686289 84.331917 
L 355.646953 86.580694 
L 357.607617 89.37353 
L 359.568281 87.995247 
L 361.528945 94.016166 
L 363.489609 91.259601 
L 365.450273 92.782966 
L 367.410937 95.285637 
L 369.371602 94.922931 
L 371.332266 99.928273 
L 373.29293 107.07358 
L 375.253594 101.923155 
L 377.214258 103.156356 
L 379.174922 101.052661 
L 381.135586 100.36352 
L 383.09625 100.145896 
L 385.056914 100.508602 
L 387.017578 98.54999 
L 388.978242 95.865966 
L 390.938906 92.710424 
L 392.89957 93.617189 
L 394.860234 93.218213 
L 396.820898 92.311448 
L 398.781562 92.093824 
L 400.742227 92.130095 
L 402.702891 96.192401 
L 404.663555 94.922931 
L 406.624219 95.213095 
L 408.584883 95.938507 
L 410.545547 97.498143 
L 412.506211 96.410025 
L 414.466875 100.508602 
L 416.427539 100.871308 
L 418.388203 99.094049 
L 420.348867 100.508602 
L 422.309531 99.384214 
L 424.270195 97.534413 
L 426.230859 101.778073 
L 428.191523 104.679721 
L 430.152187 105.513944 
L 432.112852 103.047544 
L 434.073516 102.140779 
L 437.994844 104.317015 
L 441.916172 109.032192 
L 443.876836 109.394898 
L 445.8375 112.405357 
L 445.8375 112.405357 
" clip-path="url(#pe9219e7b01)" style="fill: none; stroke: #d62728; stroke-width: 1.5; stroke-linecap: square"/>
   </g>
   <g id="line2d_29">
    <path d="M 53.704688 118.390005 
L 126.249258 118.390005 
L 128.209922 121.473006 
L 130.170586 125.4265 
L 132.13125 123.54043 
L 134.091914 124.374653 
L 136.052578 127.639007 
L 138.013242 129.05356 
L 139.973906 126.550889 
L 141.93457 127.167489 
L 143.895234 128.037983 
L 145.855898 127.24003 
L 147.816563 131.628772 
L 149.777227 130.975901 
L 151.737891 134.820584 
L 153.698555 149.22001 
L 157.619883 149.22001 
L 159.580547 145.302786 
L 161.541211 138.701538 
L 163.501875 137.323255 
L 171.344531 135.582267 
L 173.305195 134.457878 
L 175.265859 137.649691 
L 177.226523 137.178173 
L 179.187188 140.914044 
L 181.147852 164.598742 
L 183.108516 146.499716 
L 185.06918 143.815692 
L 187.029844 143.017739 
L 188.990508 147.877998 
L 190.951172 148.385787 
L 192.911836 151.758952 
L 194.8725 158.106306 
L 196.833164 157.235812 
L 198.793828 152.520634 
L 200.754492 157.707329 
L 202.715156 153.717564 
L 204.67582 151.069811 
L 206.636484 150.344399 
L 208.597148 150.598293 
L 210.557813 152.339281 
L 212.518477 157.997494 
L 214.479141 153.935188 
L 216.439805 152.88334 
L 218.400469 151.396246 
L 220.361133 148.095622 
L 222.321797 146.608528 
L 224.282461 142.546221 
L 226.243125 144.613645 
L 228.203789 143.634339 
L 230.164453 143.851962 
L 232.125117 147.950539 
L 234.085781 148.095622 
L 236.046445 144.90381 
L 238.007109 147.297669 
L 239.967773 144.033315 
L 241.928438 136.888008 
L 243.889102 136.888008 
L 245.849766 139.789656 
L 247.81043 143.851962 
L 249.771094 143.634339 
L 251.731758 146.209551 
L 253.692422 145.375327 
L 255.653086 143.452986 
L 257.61375 142.800115 
L 259.574414 140.007279 
L 261.535078 138.121208 
L 263.495742 135.473455 
L 265.456406 136.742926 
L 267.41707 135.437184 
L 269.377734 124.701089 
L 271.338398 129.08983 
L 273.299063 133.043325 
L 275.259727 131.157254 
L 277.220391 131.991478 
L 283.102383 137.504608 
L 285.063047 135.908702 
L 287.023711 135.473455 
L 288.984375 133.369761 
L 290.945039 130.576925 
L 292.905703 132.172831 
L 296.827031 128.400689 
L 298.787695 128.835936 
L 300.748359 128.219336 
L 302.709023 126.804783 
L 304.669687 126.949865 
L 306.630352 120.457429 
L 308.591016 121.908253 
L 310.55168 115.524628 
L 312.512344 87.56 
L 332.118984 87.56 
L 336.040312 107.617639 
L 338.000977 112.477898 
L 339.961641 107.762721 
L 341.922305 111.716216 
L 343.882969 111.498592 
L 345.843633 112.369086 
L 347.804297 117.991029 
L 349.764961 122.488582 
L 351.725625 119.8771 
L 353.686289 121.219112 
L 355.646953 116.395122 
L 357.607617 112.187734 
L 359.568281 117.265617 
L 361.528945 117.737134 
L 363.489609 122.524853 
L 365.450273 121.618088 
L 367.410937 121.76317 
L 369.371602 120.820135 
L 371.332266 123.105182 
L 373.29293 125.644124 
L 375.253594 124.483465 
L 377.214258 122.452312 
L 379.174922 122.706206 
L 381.135586 124.1933 
L 383.09625 126.768512 
L 385.056914 129.126101 
L 387.017578 130.069137 
L 388.978242 133.986361 
L 390.938906 134.965667 
L 392.89957 134.421608 
L 394.860234 132.426725 
L 396.820898 135.836161 
L 398.781562 133.260949 
L 400.742227 134.421608 
L 402.702891 129.815242 
L 404.663555 131.193525 
L 406.624219 126.62343 
L 408.584883 126.151912 
L 410.545547 126.986136 
L 412.506211 128.582042 
L 414.466875 127.493924 
L 416.427539 128.110524 
L 418.388203 129.343725 
L 420.348867 125.970559 
L 422.309531 125.317689 
L 424.270195 126.514618 
L 426.230859 126.550889 
L 428.191523 128.183066 
L 430.152187 128.763395 
L 432.112852 135.219561 
L 434.073516 133.986361 
L 436.03418 133.043325 
L 437.994844 130.830819 
L 439.955508 130.939631 
L 441.916172 132.608078 
L 443.876836 134.56669 
L 445.8375 136.271408 
L 445.8375 136.271408 
" clip-path="url(#pe9219e7b01)" style="fill: none; stroke: #9467bd; stroke-width: 1.5; stroke-linecap: square"/>
   </g>
   <g id="line2d_30">
    <path d="M 53.704688 210.84375 
L 445.8375 210.84375 
L 445.8375 210.84375 
" clip-path="url(#pe9219e7b01)" style="fill: none; stroke: #8c564b; stroke-width: 1.5; stroke-linecap: square"/>
   </g>
   <g id="patch_3">
    <path d="M 53.704688 210.84375 
L 53.704688 25.918125 
" style="fill: none; stroke: #000000; stroke-width: 0.8; stroke-linejoin: miter; stroke-linecap: square"/>
   </g>
   <g id="patch_4">
    <path d="M 445.8375 210.84375 
L 445.8375 25.918125 
" style="fill: none; stroke: #000000; stroke-width: 0.8; stroke-linejoin: miter; stroke-linecap: square"/>
   </g>
   <g id="patch_5">
    <path d="M 53.704688 210.84375 
L 445.8375 210.84375 
" style="fill: none; stroke: #000000; stroke-width: 0.8; stroke-linejoin: miter; stroke-linecap: square"/>
   </g>
   <g id="patch_6">
    <path d="M 53.704688 25.918125 
L 445.8375 25.918125 
" style="fill: none; stroke: #000000; stroke-width: 0.8; stroke-linejoin: miter; stroke-linecap: square"/>
   </g>
   <g id="text_15">
    <!-- Ordinal bifurcation diagram -->
    <g transform="translate(167.109844 19.918125) scale(0.12 -0.12)">
     <defs>
      <path id="DejaVuSans-4f" d="M 2522 4238 
Q 1834 4238 1429 3725 
Q 1025 3213 1025 2328 
Q 1025 1447 1429 934 
Q 1834 422 2522 422 
Q 3209 422 3611 934 
Q 4013 1447 4013 2328 
Q 4013 3213 3611 3725 
Q 3209 4238 2522 4238 
z
M 2522 4750 
Q 3503 4750 4090 4092 
Q 4678 3434 4678 2328 
Q 4678 1225 4090 567 
Q 3503 -91 2522 -91 
Q 1538 -91 948 565 
Q 359 1222 359 2328 
Q 359 3434 948 4092 
Q 1538 4750 2522 4750 
z
" transform="scale(0.015625)"/>
      <path id="DejaVuSans-66" d="M 2375 4863 
L 2375 4384 
L 1825 4384 
Q 1516 4384 1395 4259 
Q 1275 4134 1275 3809 
L 1275 3500 
L 2222 3500 
L 2222 3053 
L 1275 3053 
L 1275 0 
L 697 0 
L 697 3053 
L 147 3053 
L 147 3500 
L 697 3500 
L 697 3744 
Q 697 4328 969 4595 
Q 1241 4863 1831 4863 
L 2375 4863 
z
" transform="scale(0.015625)"/>
      <path id="DejaVuSans-75" d="M 544 1381 
L 544 3500 
L 1119 3500 
L 1119 1403 
Q 1119 906 1312 657 
Q 1506 409 1894 409 
Q 2359 409 2629 706 
Q 2900 1003 2900 1516 
L 2900 3500 
L 3475 3500 
L 3475 0 
L 2900 0 
L 2900 538 
Q 2691 219 2414 64 
Q 2138 -91 1772 -91 
Q 1169 -91 856 284 
Q 544 659 544 1381 
z
M 1991 3584 
L 1991 3584 
z
" transform="scale(0.015625)"/>
      <path id="DejaVuSans-63" d="M 3122 3366 
L 3122 2828 
Q 2878 2963 2633 3030 
Q 2388 3097 2138 3097 
Q 1578 3097 1268 2742 
Q 959 2388 959 1747 
Q 959 1106 1268 751 
Q 1578 397 2138 397 
Q 2388 397 2633 464 
Q 2878 531 3122 666 
L 3122 134 
Q 2881 22 2623 -34 
Q 2366 -91 2075 -91 
Q 1284 -91 818 406 
Q 353 903 353 1747 
Q 353 2603 823 3093 
Q 1294 3584 2113 3584 
Q 2378 3584 2631 3529 
Q 2884 3475 3122 3366 
z
" transform="scale(0.015625)"/>
      <path id="DejaVuSans-67" d="M 2906 1791 
Q 2906 2416 2648 2759 
Q 2391 3103 1925 3103 
Q 1463 3103 1205 2759 
Q 947 2416 947 1791 
Q 947 1169 1205 825 
Q 1463 481 1925 481 
Q 2391 481 2648 825 
Q 2906 1169 2906 1791 
z
M 3481 434 
Q 3481 -459 3084 -895 
Q 2688 -1331 1869 -1331 
Q 1566 -1331 1297 -1286 
Q 1028 -1241 775 -1147 
L 775 -588 
Q 1028 -725 1275 -790 
Q 1522 -856 1778 -856 
Q 2344 -856 2625 -561 
Q 2906 -266 2906 331 
L 2906 616 
Q 2728 306 2450 153 
Q 2172 0 1784 0 
Q 1141 0 747 490 
Q 353 981 353 1791 
Q 353 2603 747 3093 
Q 1141 3584 1784 3584 
Q 2172 3584 2450 3431 
Q 2728 3278 2906 2969 
L 2906 3500 
L 3481 3500 
L 3481 434 
z
" transform="scale(0.015625)"/>
      <path id="DejaVuSans-6d" d="M 3328 2828 
Q 3544 3216 3844 3400 
Q 4144 3584 4550 3584 
Q 5097 3584 5394 3201 
Q 5691 2819 5691 2113 
L 5691 0 
L 5113 0 
L 5113 2094 
Q 5113 2597 4934 2840 
Q 4756 3084 4391 3084 
Q 3944 3084 3684 2787 
Q 3425 2491 3425 1978 
L 3425 0 
L 2847 0 
L 2847 2094 
Q 2847 2600 2669 2842 
Q 2491 3084 2119 3084 
Q 1678 3084 1418 2786 
Q 1159 2488 1159 1978 
L 1159 0 
L 581 0 
L 581 3500 
L 1159 3500 
L 1159 2956 
Q 1356 3278 1631 3431 
Q 1906 3584 2284 3584 
Q 2666 3584 2933 3390 
Q 3200 3197 3328 2828 
z
" transform="scale(0.015625)"/>
     </defs>
     <use xlink:href="#DejaVuSans-4f"/>
     <use xlink:href="#DejaVuSans-72" x="78.710938"/>
     <use xlink:href="#DejaVuSans-64" x="118.074219"/>
     <use xlink:href="#DejaVuSans-69" x="181.550781"/>
     <use xlink:href="#DejaVuSans-6e" x="209.333984"/>
     <use xlink:href="#DejaVuSans-61" x="272.712891"/>
     <use xlink:href="#DejaVuSans-6c" x="333.992188"/>
     <use xlink:href="#DejaVuSans-20" x="361.775391"/>
     <use xlink:href="#DejaVuSans-62" x="393.5625"/>
     <use xlink:href="#DejaVuSans-69" x="457.039062"/>
     <use xlink:href="#DejaVuSans-66" x="484.822266"/>
     <use xlink:href="#DejaVuSans-75" x="520.027344"/>
     <use xlink:href="#DejaVuSans-72" x="583.40625"/>
     <use xlink:href="#DejaVuSans-63" x="622.269531"/>
     <use xlink:href="#DejaVuSans-61" x="677.25"/>
     <use xlink:href="#DejaVuSans-74" x="738.529297"/>
     <use xlink:href="#DejaVuSans-69" x="777.738281"/>
     <use xlink:href="#DejaVuSans-6f" x="805.521484"/>
     <use xlink:href="#DejaVuSans-6e" x="866.703125"/>
     <use xlink:href="#DejaVuSans-20" x="930.082031"/>
     <use xlink:href="#DejaVuSans-64" x="961.869141"/>
     <use xlink:href="#DejaVuSans-69" x="1025.345703"/>
     <use xlink:href="#DejaVuSans-61" x="1053.128906"/>
     <use xlink:href="#DejaVuSans-67" x="1114.408203"/>
     <use xlink:href="#DejaVuSans-72" x="1177.884766"/>
     <use xlink:href="#DejaVuSans-61" x="1218.998047"/>
     <use xlink:href="#DejaVuSans-6d" x="1280.277344"/>
    </g>
   </g>
   <g id="legend_1">
    <g id="patch_7">
     <path d="M 452.8375 163.915312 
L 491.2 163.915312 
Q 493.2 163.915312 493.2 161.915312 
L 493.2 74.846562 
Q 493.2 72.846562 491.2 72.846562 
L 452.8375 72.846562 
Q 450.8375 72.846562 450.8375 74.846562 
L 450.8375 161.915312 
Q 450.8375 163.915312 452.8375 163.915312 
z
" style="fill: #ffffff; opacity: 0.8; stroke: #cccccc; stroke-linejoin: miter"/>
    </g>
    <g id="line2d_31">
     <path d="M 454.8375 80.945 
L 464.8375 80.945 
L 474.8375 80.945 
" style="fill: none; stroke: #1f77b4; stroke-width: 1.5; stroke-linecap: square"/>
    </g>
    <g id="text_16">
     <!-- 1 -->
     <g transform="translate(482.8375 84.445) scale(0.1 -0.1)">
      <use xlink:href="#DejaVuSans-31"/>
     </g>
    </g>
    <g id="line2d_32">
     <path d="M 454.8375 95.623125 
L 464.8375 95.623125 
L 474.8375 95.623125 
" style="fill: none; stroke: #ff7f0e; stroke-width: 1.5; stroke-linecap: square"/>
    </g>
    <g id="text_17">
     <!-- 2 -->
     <g transform="translate(482.8375 99.123125) scale(0.1 -0.1)">
      <use xlink:href="#DejaVuSans-32"/>
     </g>
    </g>
    <g id="line2d_33">
     <path d="M 454.8375 110.30125 
L 464.8375 110.30125 
L 474.8375 110.30125 
" style="fill: none; stroke: #2ca02c; stroke-width: 1.5; stroke-linecap: square"/>
    </g>
    <g id="text_18">
     <!-- 3 -->
     <g transform="translate(482.8375 113.80125) scale(0.1 -0.1)">
      <use xlink:href="#DejaVuSans-33"/>
     </g>
    </g>
    <g id="line2d_34">
     <path d="M 454.8375 124.979375 
L 464.8375 124.979375 
L 474.8375 124.979375 
" style="fill: none; stroke: #d62728; stroke-width: 1.5; stroke-linecap: square"/>
    </g>
    <g id="text_19">
     <!-- 4 -->
     <g transform="translate(482.8375 128.479375) scale(0.1 -0.1)">
      <use xlink:href="#DejaVuSans-34"/>
     </g>
    </g>
    <g id="line2d_35">
     <path d="M 454.8375 139.6575 
L 464.8375 139.6575 
L 474.8375 139.6575 
" style="fill: none; stroke: #9467bd; stroke-width: 1.5; stroke-linecap: square"/>
    </g>
    <g id="text_20">
     <!-- 5 -->
     <g transform="translate(482.8375 143.1575) scale(0.1 -0.1)">
      <use xlink:href="#DejaVuSans-35"/>
     </g>
    </g>
    <g id="line2d_36">
     <path d="M 454.8375 154.335625 
L 464.8375 154.335625 
L 474.8375 154.335625 
" style="fill: none; stroke: #8c564b; stroke-width: 1.5; stroke-linecap: square"/>
    </g>
    <g id="text_21">
     <!-- 6 -->
     <g transform="translate(482.8375 157.835625) scale(0.1 -0.1)">
      <use xlink:href="#DejaVuSans-36"/>
     </g>
    </g>
   </g>
  </g>
 </g>
 <defs>
  <clipPath id="pe9219e7b01">
   <rect x="53.704688" y="25.918125" width="392.132812" height="184.925625"/>
  </clipPath>
 </defs>
</svg>
